<?xml version="1.0" encoding="UTF-8"?>
<svg xmlns="http://www.w3.org/2000/svg" xmlns:xlink="http://www.w3.org/1999/xlink" viewBox="0 0 48 48" width="48px" height="48px">
<g id="surface283837008">
<path style=" stroke:none;fill-rule:nonzero;fill:rgb(96.078432%,3.137255%,13.725491%);fill-opacity:1;" d="M 33.121094 39.359375 L 14.878906 39.359375 C 11.433594 39.359375 8.640625 36.566406 8.640625 33.121094 L 8.640625 14.878906 C 8.640625 11.433594 11.433594 8.640625 14.878906 8.640625 L 33.121094 8.640625 C 36.566406 8.640625 39.359375 11.433594 39.359375 14.878906 L 39.359375 33.121094 C 39.359375 36.566406 36.566406 39.359375 33.121094 39.359375 Z M 33.121094 39.359375 "/>
<path style=" stroke:none;fill-rule:nonzero;fill:rgb(9.803922%,10.196079%,13.725491%);fill-opacity:1;" d="M 31.921875 37.441406 L 16.078125 37.441406 C 13.035156 37.441406 10.558594 34.964844 10.558594 31.921875 L 10.558594 16.078125 C 10.558594 13.035156 13.035156 10.558594 16.078125 10.558594 L 31.921875 10.558594 C 32.089844 10.558594 32.257812 10.570312 32.421875 10.585938 C 32.554688 10.597656 32.652344 10.714844 32.640625 10.847656 C 32.628906 10.976562 32.515625 11.074219 32.378906 11.0625 C 32.226562 11.050781 32.074219 11.039062 31.921875 11.039062 L 16.078125 11.039062 C 13.300781 11.039062 11.039062 13.300781 11.039062 16.078125 L 11.039062 31.921875 C 11.039062 34.699219 13.300781 36.960938 16.078125 36.960938 L 31.921875 36.960938 C 34.699219 36.960938 36.960938 34.699219 36.960938 31.921875 L 36.960938 23.761719 C 36.960938 23.628906 37.066406 23.519531 37.199219 23.519531 C 37.332031 23.519531 37.441406 23.628906 37.441406 23.761719 L 37.441406 31.921875 C 37.441406 34.964844 34.964844 37.441406 31.921875 37.441406 Z M 37.199219 19.199219 C 37.066406 19.199219 36.960938 19.09375 36.960938 18.960938 L 36.960938 18 C 36.960938 17.867188 37.066406 17.761719 37.199219 17.761719 C 37.332031 17.761719 37.441406 17.867188 37.441406 18 L 37.441406 18.960938 C 37.441406 19.09375 37.332031 19.199219 37.199219 19.199219 Z M 37.199219 22.558594 C 37.066406 22.558594 36.960938 22.453125 36.960938 22.320312 L 36.960938 20.398438 C 36.960938 20.265625 37.066406 20.160156 37.199219 20.160156 C 37.332031 20.160156 37.441406 20.265625 37.441406 20.398438 L 37.441406 22.320312 C 37.441406 22.453125 37.332031 22.558594 37.199219 22.558594 Z M 37.199219 22.558594 "/>
<path style=" stroke:none;fill-rule:nonzero;fill:rgb(9.803922%,10.196079%,13.725491%);fill-opacity:1;" d="M 33.121094 39.839844 L 14.878906 39.839844 C 11.175781 39.839844 8.160156 36.824219 8.160156 33.121094 L 8.160156 14.878906 C 8.160156 11.175781 11.175781 8.160156 14.878906 8.160156 L 33.121094 8.160156 C 36.824219 8.160156 39.839844 11.175781 39.839844 14.878906 L 39.839844 33.121094 C 39.839844 36.824219 36.824219 39.839844 33.121094 39.839844 Z M 14.878906 9.121094 C 11.703125 9.121094 9.121094 11.703125 9.121094 14.878906 L 9.121094 33.121094 C 9.121094 36.296875 11.703125 38.878906 14.878906 38.878906 L 33.121094 38.878906 C 36.296875 38.878906 38.878906 36.296875 38.878906 33.121094 L 38.878906 14.878906 C 38.878906 11.703125 36.296875 9.121094 33.121094 9.121094 Z M 14.878906 9.121094 "/>
<path style=" stroke:none;fill-rule:nonzero;fill:rgb(99.607843%,99.215686%,93.725491%);fill-opacity:1;" d="M 29.738281 23.238281 C 28.199219 23.507812 26.160156 23.65625 24 23.65625 C 21.839844 23.65625 19.800781 23.507812 18.261719 23.238281 C 16.535156 22.9375 15.660156 22.535156 15.429688 21.925781 C 15.386719 22.035156 15.359375 22.148438 15.359375 22.273438 L 15.359375 25.726562 C 15.359375 26.535156 16.226562 27.03125 18.261719 27.386719 C 19.800781 27.652344 21.839844 27.800781 24 27.800781 C 26.160156 27.800781 28.199219 27.652344 29.738281 27.386719 C 31.773438 27.03125 32.640625 26.535156 32.640625 25.726562 L 32.640625 22.273438 C 32.640625 22.148438 32.613281 22.035156 32.574219 21.925781 C 32.34375 22.535156 31.464844 22.9375 29.738281 23.238281 "/>
<path style=" stroke:none;fill-rule:nonzero;fill:rgb(99.607843%,99.215686%,93.725491%);fill-opacity:1;" d="M 29.738281 28.769531 C 28.199219 29.035156 26.160156 29.183594 24 29.183594 C 21.839844 29.183594 19.800781 29.035156 18.261719 28.769531 C 16.535156 28.46875 15.660156 28.066406 15.429688 27.457031 C 15.386719 27.566406 15.359375 27.679688 15.359375 27.800781 L 15.359375 31.257812 C 15.359375 32.066406 16.226562 32.5625 18.261719 32.914062 C 19.800781 33.183594 21.839844 33.332031 24 33.332031 C 26.160156 33.332031 28.199219 33.183594 29.738281 32.914062 C 31.773438 32.5625 32.640625 32.066406 32.640625 31.257812 L 32.640625 27.800781 C 32.640625 27.679688 32.613281 27.566406 32.574219 27.457031 C 32.34375 28.0625 31.464844 28.46875 29.738281 28.769531 "/>
<path style=" stroke:none;fill-rule:nonzero;fill:rgb(99.607843%,99.215686%,93.725491%);fill-opacity:1;" d="M 29.738281 15.085938 C 28.199219 14.816406 26.160156 14.667969 24 14.667969 C 21.839844 14.667969 19.800781 14.816406 18.261719 15.085938 C 16.226562 15.4375 15.359375 15.933594 15.359375 16.742188 L 15.359375 20.199219 C 15.359375 21.007812 16.226562 21.503906 18.261719 21.855469 C 19.800781 22.125 21.839844 22.273438 24 22.273438 C 26.160156 22.273438 28.199219 22.125 29.738281 21.855469 C 31.773438 21.503906 32.640625 21.007812 32.640625 20.199219 L 32.640625 16.742188 C 32.640625 15.933594 31.773438 15.4375 29.738281 15.085938 Z M 24 15.359375 C 28.390625 15.359375 31.949219 15.980469 31.949219 16.742188 C 31.949219 17.503906 28.390625 18.125 24 18.125 C 19.609375 18.125 16.050781 17.503906 16.050781 16.742188 C 16.050781 15.980469 19.609375 15.359375 24 15.359375 Z M 24 15.359375 "/>
<path style=" stroke:none;fill-rule:nonzero;fill:rgb(96.078432%,3.137255%,13.725491%);fill-opacity:1;" d="M 26.992188 19.929688 C 26.777344 19.929688 26.59375 19.761719 26.578125 19.542969 C 26.5625 19.3125 26.738281 19.113281 26.964844 19.101562 C 28.03125 19.027344 28.984375 18.917969 29.804688 18.773438 C 30.09375 18.726562 30.492188 18.65625 30.898438 18.550781 C 31.117188 18.496094 31.34375 18.628906 31.402344 18.851562 C 31.460938 19.070312 31.328125 19.296875 31.105469 19.355469 C 30.667969 19.46875 30.25 19.539062 29.945312 19.59375 C 29.097656 19.738281 28.113281 19.851562 27.023438 19.925781 C 27.011719 19.925781 27.003906 19.929688 26.992188 19.929688 Z M 26.992188 19.929688 "/>
<path style=" stroke:none;fill-rule:nonzero;fill:rgb(96.078432%,3.137255%,13.725491%);fill-opacity:1;" d="M 26.992188 25.457031 C 26.777344 25.457031 26.59375 25.289062 26.578125 25.070312 C 26.5625 24.84375 26.738281 24.644531 26.964844 24.628906 C 28.027344 24.558594 28.980469 24.449219 29.804688 24.304688 C 30.09375 24.253906 30.492188 24.1875 30.898438 24.082031 C 31.117188 24.023438 31.34375 24.15625 31.402344 24.378906 C 31.460938 24.601562 31.328125 24.828125 31.105469 24.882812 C 30.667969 24.996094 30.25 25.070312 29.945312 25.121094 C 29.097656 25.269531 28.113281 25.382812 27.023438 25.457031 C 27.011719 25.457031 27.003906 25.457031 26.992188 25.457031 Z M 26.992188 25.457031 "/>
<path style=" stroke:none;fill-rule:nonzero;fill:rgb(96.078432%,3.137255%,13.725491%);fill-opacity:1;" d="M 26.992188 30.988281 C 26.777344 30.988281 26.59375 30.820312 26.578125 30.601562 C 26.5625 30.371094 26.738281 30.171875 26.964844 30.160156 C 28.027344 30.085938 28.980469 29.976562 29.804688 29.832031 C 30.09375 29.785156 30.492188 29.714844 30.898438 29.609375 C 31.117188 29.554688 31.34375 29.6875 31.402344 29.910156 C 31.460938 30.128906 31.328125 30.355469 31.105469 30.414062 C 30.667969 30.527344 30.25 30.597656 29.945312 30.652344 C 29.09375 30.800781 28.113281 30.910156 27.023438 30.984375 C 27.011719 30.988281 27.003906 30.988281 26.992188 30.988281 Z M 26.992188 30.988281 "/>
<path style=" stroke:none;fill-rule:nonzero;fill:rgb(12.941177%,9.803922%,9.803922%);fill-opacity:1;" d="M 13.554688 24.351562 L 12.585938 24.351562 L 12.585938 26.238281 L 11.480469 26.238281 L 11.480469 20.878906 L 13.570312 20.878906 C 13.972656 20.878906 14.328125 20.953125 14.632812 21.101562 C 14.941406 21.25 15.175781 21.457031 15.335938 21.726562 C 15.5 22 15.582031 22.308594 15.582031 22.652344 C 15.582031 23.179688 15.402344 23.59375 15.042969 23.894531 C 14.6875 24.199219 14.1875 24.351562 13.554688 24.351562 Z M 12.585938 21.773438 L 12.585938 23.453125 L 13.570312 23.453125 C 13.863281 23.453125 14.085938 23.386719 14.238281 23.246094 C 14.390625 23.113281 14.46875 22.917969 14.46875 22.660156 C 14.46875 22.398438 14.390625 22.183594 14.238281 22.023438 C 14.082031 21.859375 13.871094 21.777344 13.597656 21.773438 Z M 17.445312 20.878906 L 17.445312 25.347656 L 19.789062 25.347656 L 19.789062 26.238281 L 16.34375 26.238281 L 16.34375 20.878906 Z M 22.660156 20.878906 L 20.6875 26.695312 L 19.894531 26.695312 L 21.867188 20.878906 Z M 26.015625 24.832031 C 26.015625 24.621094 25.941406 24.460938 25.792969 24.351562 C 25.648438 24.238281 25.382812 24.121094 25 24 C 24.617188 23.875 24.3125 23.753906 24.089844 23.632812 C 23.480469 23.304688 23.175781 22.859375 23.175781 22.304688 C 23.175781 22.015625 23.257812 21.753906 23.421875 21.527344 C 23.585938 21.300781 23.820312 21.125 24.125 21 C 24.429688 20.871094 24.773438 20.804688 25.152344 20.804688 C 25.535156 20.804688 25.878906 20.875 26.175781 21.015625 C 26.476562 21.152344 26.707031 21.347656 26.875 21.601562 C 27.039062 21.855469 27.121094 22.140625 27.121094 22.460938 L 26.019531 22.460938 C 26.019531 22.21875 25.941406 22.027344 25.785156 21.890625 C 25.632812 21.753906 25.414062 21.683594 25.136719 21.683594 C 24.867188 21.683594 24.65625 21.742188 24.503906 21.855469 C 24.355469 21.96875 24.28125 22.121094 24.28125 22.308594 C 24.28125 22.480469 24.371094 22.628906 24.542969 22.746094 C 24.71875 22.863281 24.976562 22.972656 25.320312 23.078125 C 25.945312 23.265625 26.402344 23.5 26.691406 23.777344 C 26.980469 24.058594 27.121094 24.40625 27.121094 24.824219 C 27.121094 25.289062 26.945312 25.652344 26.59375 25.914062 C 26.246094 26.179688 25.773438 26.308594 25.179688 26.308594 C 24.765625 26.308594 24.390625 26.234375 24.054688 26.082031 C 23.714844 25.933594 23.457031 25.726562 23.28125 25.464844 C 23.101562 25.203125 23.011719 24.898438 23.011719 24.550781 L 24.121094 24.550781 C 24.121094 25.144531 24.472656 25.4375 25.179688 25.4375 C 25.441406 25.4375 25.648438 25.386719 25.792969 25.28125 C 25.941406 25.171875 26.015625 25.023438 26.015625 24.832031 Z M 32.261719 23.441406 L 32.261719 23.679688 C 32.261719 24.179688 32.179688 24.617188 32.019531 24.984375 C 31.855469 25.355469 31.632812 25.648438 31.34375 25.871094 L 32.234375 26.570312 L 31.53125 27.195312 L 30.394531 26.277344 C 30.261719 26.300781 30.128906 26.308594 29.988281 26.308594 C 29.542969 26.308594 29.148438 26.203125 28.800781 25.992188 C 28.453125 25.777344 28.183594 25.472656 27.992188 25.074219 C 27.800781 24.679688 27.703125 24.222656 27.699219 23.707031 L 27.699219 23.441406 C 27.699219 22.917969 27.796875 22.453125 27.984375 22.050781 C 28.175781 21.652344 28.445312 21.34375 28.792969 21.128906 C 29.136719 20.914062 29.535156 20.804688 29.980469 20.804688 C 30.425781 20.804688 30.824219 20.914062 31.171875 21.128906 C 31.519531 21.34375 31.785156 21.652344 31.976562 22.050781 C 32.164062 22.453125 32.261719 22.914062 32.261719 23.441406 Z M 31.144531 23.695312 L 31.144531 23.4375 C 31.144531 22.875 31.042969 22.449219 30.84375 22.15625 C 30.640625 21.863281 30.351562 21.71875 29.980469 21.71875 C 29.609375 21.71875 29.324219 21.863281 29.125 22.152344 C 28.921875 22.441406 28.820312 22.863281 28.816406 23.417969 L 28.816406 23.679688 C 28.816406 24.226562 28.917969 24.652344 29.121094 24.953125 C 29.320312 25.253906 29.609375 25.40625 29.988281 25.40625 C 30.359375 25.40625 30.644531 25.261719 30.84375 24.96875 C 31.039062 24.679688 31.140625 24.253906 31.144531 23.695312 Z M 34.175781 20.878906 L 34.175781 25.347656 L 36.519531 25.347656 L 36.519531 26.238281 L 33.074219 26.238281 L 33.074219 20.878906 Z M 34.175781 20.878906 "/>
</g>
</svg>
