<?xml version="1.0" encoding="UTF-8"?>
<svg xmlns="http://www.w3.org/2000/svg" xmlns:xlink="http://www.w3.org/1999/xlink" viewBox="0 0 100 100" width="100px" height="100px">
<g id="surface283837660">
<path style=" stroke:none;fill-rule:nonzero;fill:rgb(96.078432%,3.137255%,13.725491%);fill-opacity:1;" d="M 69 82 L 31 82 C 23.820312 82 18 76.179688 18 69 L 18 31 C 18 23.820312 23.820312 18 31 18 L 69 18 C 76.179688 18 82 23.820312 82 31 L 82 69 C 82 76.179688 76.179688 82 69 82 Z M 69 82 "/>
<path style=" stroke:none;fill-rule:nonzero;fill:rgb(9.803922%,10.196079%,13.725491%);fill-opacity:1;" d="M 66.5 78 L 33.5 78 C 27.160156 78 22 72.839844 22 66.5 L 22 33.5 C 22 27.160156 27.160156 22 33.5 22 L 66.5 22 C 66.851562 22 67.199219 22.019531 67.546875 22.054688 C 67.820312 22.078125 68.023438 22.320312 67.996094 22.597656 C 67.972656 22.871094 67.738281 23.074219 67.453125 23.050781 C 67.140625 23.019531 66.820312 23 66.5 23 L 33.5 23 C 27.710938 23 23 27.710938 23 33.5 L 23 66.5 C 23 72.289062 27.710938 77 33.5 77 L 66.5 77 C 72.289062 77 77 72.289062 77 66.5 L 77 49.5 C 77 49.222656 77.222656 49 77.5 49 C 77.777344 49 78 49.222656 78 49.5 L 78 66.5 C 78 72.839844 72.839844 78 66.5 78 Z M 77.5 40 C 77.222656 40 77 39.777344 77 39.5 L 77 37.5 C 77 37.222656 77.222656 37 77.5 37 C 77.777344 37 78 37.222656 78 37.5 L 78 39.5 C 78 39.777344 77.777344 40 77.5 40 Z M 77.5 47 C 77.222656 47 77 46.777344 77 46.5 L 77 42.5 C 77 42.222656 77.222656 42 77.5 42 C 77.777344 42 78 42.222656 78 42.5 L 78 46.5 C 78 46.777344 77.777344 47 77.5 47 Z M 77.5 47 "/>
<path style=" stroke:none;fill-rule:nonzero;fill:rgb(9.803922%,10.196079%,13.725491%);fill-opacity:1;" d="M 69 83 L 31 83 C 23.28125 83 17 76.71875 17 69 L 17 31 C 17 23.28125 23.28125 17 31 17 L 69 17 C 76.71875 17 83 23.28125 83 31 L 83 69 C 83 76.71875 76.71875 83 69 83 Z M 31 19 C 24.382812 19 19 24.382812 19 31 L 19 69 C 19 75.617188 24.382812 81 31 81 L 69 81 C 75.617188 81 81 75.617188 81 69 L 81 31 C 81 24.382812 75.617188 19 69 19 Z M 31 19 "/>
<path style=" stroke:none;fill-rule:nonzero;fill:rgb(99.607843%,99.215686%,93.725491%);fill-opacity:1;" d="M 61.957031 48.414062 C 58.75 48.972656 54.503906 49.28125 50 49.28125 C 45.496094 49.28125 41.25 48.972656 38.046875 48.414062 C 34.453125 47.789062 32.621094 46.949219 32.144531 45.679688 C 32.058594 45.90625 32 46.144531 32 46.398438 L 32 53.601562 C 32 55.285156 33.808594 56.320312 38.046875 57.054688 C 41.25 57.613281 45.496094 57.921875 50 57.921875 C 54.503906 57.921875 58.75 57.613281 61.957031 57.054688 C 66.191406 56.320312 68 55.285156 68 53.601562 L 68 46.398438 C 68 46.144531 67.945312 45.90625 67.859375 45.679688 C 67.378906 46.949219 65.550781 47.789062 61.957031 48.414062 "/>
<path style=" stroke:none;fill-rule:nonzero;fill:rgb(99.607843%,99.215686%,93.725491%);fill-opacity:1;" d="M 61.957031 59.933594 C 58.75 60.492188 54.503906 60.800781 50 60.800781 C 45.496094 60.800781 41.25 60.492188 38.046875 59.933594 C 34.453125 59.308594 32.621094 58.46875 32.144531 57.199219 C 32.058594 57.429688 32 57.664062 32 57.921875 L 32 65.121094 C 32 66.804688 33.808594 67.839844 38.046875 68.574219 C 41.25 69.132812 45.496094 69.441406 50 69.441406 C 54.503906 69.441406 58.75 69.132812 61.957031 68.574219 C 66.191406 67.839844 68 66.804688 68 65.121094 L 68 57.921875 C 68 57.664062 67.945312 57.429688 67.859375 57.199219 C 67.378906 58.46875 65.550781 59.308594 61.957031 59.933594 "/>
<path style=" stroke:none;fill-rule:nonzero;fill:rgb(99.607843%,99.215686%,93.725491%);fill-opacity:1;" d="M 61.957031 31.425781 C 58.75 30.867188 54.503906 30.558594 50 30.558594 C 45.496094 30.558594 41.25 30.867188 38.042969 31.425781 C 33.808594 32.160156 32 33.195312 32 34.878906 L 32 42.078125 C 32 43.765625 33.808594 44.800781 38.042969 45.535156 C 41.25 46.09375 45.496094 46.398438 50 46.398438 C 54.503906 46.398438 58.75 46.09375 61.957031 45.535156 C 66.191406 44.796875 68 43.765625 68 42.078125 L 68 34.878906 C 68 33.195312 66.191406 32.160156 61.957031 31.425781 Z M 50 32 C 59.148438 32 66.558594 33.289062 66.558594 34.878906 C 66.558594 36.46875 59.148438 37.761719 50 37.761719 C 40.855469 37.761719 33.441406 36.46875 33.441406 34.878906 C 33.441406 33.289062 40.855469 32 50 32 Z M 50 32 "/>
<path style=" stroke:none;fill-rule:nonzero;fill:rgb(96.078432%,3.137255%,13.725491%);fill-opacity:1;" d="M 56.234375 41.515625 C 55.785156 41.515625 55.40625 41.167969 55.375 40.710938 C 55.34375 40.234375 55.699219 39.824219 56.179688 39.789062 C 58.394531 39.640625 60.386719 39.410156 62.09375 39.113281 C 62.699219 39.011719 63.527344 38.867188 64.371094 38.648438 C 64.824219 38.53125 65.304688 38.808594 65.421875 39.269531 C 65.542969 39.734375 65.265625 40.203125 64.800781 40.324219 C 63.890625 40.558594 63.019531 40.707031 62.386719 40.816406 C 60.621094 41.125 58.574219 41.359375 56.296875 41.515625 C 56.273438 41.515625 56.253906 41.515625 56.234375 41.515625 Z M 56.234375 41.515625 "/>
<path style=" stroke:none;fill-rule:nonzero;fill:rgb(96.078432%,3.137255%,13.725491%);fill-opacity:1;" d="M 56.234375 53.035156 C 55.785156 53.035156 55.40625 52.6875 55.375 52.230469 C 55.34375 51.757812 55.699219 51.34375 56.179688 51.3125 C 58.390625 51.160156 60.378906 50.933594 62.09375 50.636719 C 62.699219 50.53125 63.527344 50.386719 64.371094 50.171875 C 64.824219 50.050781 65.304688 50.328125 65.421875 50.789062 C 65.542969 51.253906 65.265625 51.722656 64.800781 51.84375 C 63.890625 52.078125 63.019531 52.226562 62.386719 52.339844 C 60.617188 52.644531 58.566406 52.878906 56.296875 53.035156 C 56.273438 53.035156 56.253906 53.035156 56.234375 53.035156 Z M 56.234375 53.035156 "/>
<path style=" stroke:none;fill-rule:nonzero;fill:rgb(96.078432%,3.137255%,13.725491%);fill-opacity:1;" d="M 56.234375 64.554688 C 55.785156 64.554688 55.40625 64.207031 55.375 63.75 C 55.34375 63.273438 55.699219 62.863281 56.179688 62.828125 C 58.390625 62.679688 60.378906 62.453125 62.09375 62.152344 C 62.699219 62.050781 63.527344 61.90625 64.371094 61.6875 C 64.824219 61.570312 65.304688 61.847656 65.421875 62.308594 C 65.542969 62.773438 65.265625 63.242188 64.800781 63.363281 C 63.890625 63.597656 63.019531 63.746094 62.386719 63.855469 C 60.617188 64.164062 58.566406 64.398438 56.296875 64.554688 C 56.273438 64.554688 56.253906 64.554688 56.234375 64.554688 Z M 56.234375 64.554688 "/>
<path style=" stroke:none;fill-rule:nonzero;fill:rgb(12.941177%,9.803922%,9.803922%);fill-opacity:1;" d="M 28.238281 50.730469 L 26.222656 50.730469 L 26.222656 54.660156 L 23.917969 54.660156 L 23.917969 43.496094 L 28.273438 43.496094 C 29.109375 43.496094 29.847656 43.652344 30.488281 43.960938 C 31.125 44.269531 31.613281 44.703125 31.953125 45.265625 C 32.292969 45.832031 32.464844 46.472656 32.464844 47.195312 C 32.464844 48.289062 32.089844 49.148438 31.34375 49.78125 C 30.59375 50.414062 29.558594 50.730469 28.238281 50.730469 Z M 26.222656 45.363281 L 26.222656 48.863281 L 28.273438 48.863281 C 28.882812 48.863281 29.34375 48.71875 29.664062 48.433594 C 29.984375 48.148438 30.144531 47.742188 30.144531 47.210938 C 30.144531 46.660156 29.984375 46.21875 29.664062 45.878906 C 29.339844 45.542969 28.894531 45.371094 28.324219 45.363281 Z M 36.34375 43.496094 L 36.34375 52.8125 L 41.226562 52.8125 L 41.226562 54.660156 L 34.046875 54.660156 L 34.046875 43.496094 Z M 47.210938 43.496094 L 43.097656 55.621094 L 41.449219 55.621094 L 45.558594 43.496094 Z M 54.199219 51.730469 C 54.199219 51.296875 54.042969 50.960938 53.738281 50.730469 C 53.433594 50.496094 52.878906 50.253906 52.082031 49.996094 C 51.28125 49.738281 50.652344 49.484375 50.1875 49.234375 C 48.917969 48.550781 48.285156 47.625 48.285156 46.46875 C 48.285156 45.863281 48.457031 45.324219 48.796875 44.851562 C 49.136719 44.378906 49.625 44.011719 50.261719 43.746094 C 50.898438 43.480469 51.609375 43.347656 52.402344 43.347656 C 53.199219 43.347656 53.910156 43.492188 54.535156 43.78125 C 55.160156 44.070312 55.644531 44.476562 55.988281 45.003906 C 56.332031 45.53125 56.503906 46.125 56.503906 46.792969 L 54.203125 46.792969 C 54.203125 46.285156 54.042969 45.886719 53.722656 45.601562 C 53.398438 45.320312 52.949219 45.175781 52.367188 45.175781 C 51.804688 45.175781 51.367188 45.296875 51.050781 45.53125 C 50.742188 45.773438 50.585938 46.085938 50.585938 46.472656 C 50.585938 46.839844 50.769531 47.140625 51.132812 47.386719 C 51.5 47.628906 52.035156 47.863281 52.75 48.078125 C 54.054688 48.46875 55.007812 48.957031 55.605469 49.539062 C 56.207031 50.125 56.503906 50.851562 56.503906 51.71875 C 56.503906 52.683594 56.140625 53.441406 55.40625 53.992188 C 54.679688 54.539062 53.695312 54.8125 52.460938 54.8125 C 51.597656 54.8125 50.816406 54.652344 50.109375 54.339844 C 49.40625 54.027344 48.867188 53.597656 48.5 53.050781 C 48.128906 52.503906 47.941406 51.871094 47.941406 51.148438 L 50.25 51.148438 C 50.25 52.378906 50.988281 52.996094 52.460938 52.996094 C 53.003906 52.996094 53.433594 52.886719 53.738281 52.664062 C 54.042969 52.441406 54.199219 52.128906 54.199219 51.730469 Z M 67.210938 48.835938 L 67.210938 49.335938 C 67.210938 50.375 67.039062 51.28125 66.703125 52.050781 C 66.367188 52.820312 65.898438 53.4375 65.300781 53.898438 L 67.15625 55.359375 L 65.691406 56.652344 L 63.320312 54.746094 C 63.046875 54.789062 62.765625 54.8125 62.476562 54.8125 C 61.550781 54.8125 60.726562 54.589844 60 54.148438 C 59.273438 53.703125 58.714844 53.066406 58.3125 52.242188 C 57.914062 51.414062 57.714844 50.464844 57.710938 49.390625 L 57.710938 48.839844 C 57.710938 47.742188 57.90625 46.777344 58.300781 45.9375 C 58.699219 45.105469 59.257812 44.464844 59.984375 44.015625 C 60.703125 43.570312 61.527344 43.347656 62.460938 43.347656 C 63.390625 43.347656 64.21875 43.570312 64.941406 44.015625 C 65.664062 44.464844 66.222656 45.105469 66.617188 45.9375 C 67.011719 46.777344 67.210938 47.742188 67.210938 48.835938 Z M 64.882812 49.371094 L 64.882812 48.828125 C 64.882812 47.65625 64.675781 46.769531 64.253906 46.160156 C 63.832031 45.550781 63.234375 45.246094 62.460938 45.246094 C 61.6875 45.246094 61.09375 45.546875 60.675781 46.148438 C 60.253906 46.75 60.042969 47.628906 60.035156 48.789062 L 60.035156 49.335938 C 60.035156 50.472656 60.246094 51.359375 60.667969 51.984375 C 61.085938 52.613281 61.691406 52.925781 62.476562 52.925781 C 63.25 52.925781 63.839844 52.625 64.253906 52.019531 C 64.667969 51.414062 64.875 50.53125 64.882812 49.371094 Z M 71.199219 43.496094 L 71.199219 52.8125 L 76.082031 52.8125 L 76.082031 54.660156 L 68.902344 54.660156 L 68.902344 43.496094 Z M 71.199219 43.496094 "/>
</g>
</svg>
